<?xml version="1.0" standalone="no"?>
<!DOCTYPE svg PUBLIC "-//W3C//DTD SVG 20010904//EN"
 "http://www.w3.org/TR/2001/REC-SVG-20010904/DTD/svg10.dtd">
<svg version="1.0" xmlns="http://www.w3.org/2000/svg"
 width="655.000000pt" height="655.000000pt" viewBox="0 0 655.000000 655.000000"
 preserveAspectRatio="xMidYMid meet">
<metadata>
Created by potrace 1.14, written by Peter Selinger 2001-2017
</metadata>
<g transform="translate(0.000000,655.000000) scale(0.100000,-0.100000)"
fill="#000000" stroke="none">
<path d="M2648 6534 c-85 -20 -175 -69 -240 -131 -71 -68 -112 -132 -144 -220
l-24 -68 0 -582 0 -583 -1002 0 c-680 0 -1022 -4 -1064 -11 -37 -6 -85 -24
-116 -43 l-53 -31 -3 -518 -2 -517 1395 0 1395 0 0 -275 0 -275 305 0 305 0 0
-140 0 -140 -1022 2 -1023 3 -3 133 -3 132 -674 0 -675 0 0 -610 0 -610 505 0
505 0 2 268 3 267 175 0 175 0 3 -123 3 -122 329 0 329 0 3 123 3 122 172 3
172 2 3 -127 3 -128 335 0 335 0 3 128 3 127 169 0 170 0 0 -801 c0 -789 0
-802 -20 -835 -12 -18 -40 -42 -63 -52 -41 -20 -72 -21 -1097 -27 -972 -7
-1058 -6 -1095 9 -22 9 -50 27 -64 39 -49 46 -51 60 -51 457 l0 370 -505 0
-505 0 2 -752 3 -753 24 -53 c31 -68 106 -134 186 -164 l60 -23 1915 -3 c1395
-2 1929 0 1968 8 l52 11 0 1284 0 1284 42 3 c40 3 43 5 54 43 7 22 13 93 13
158 l1 117 76 0 c95 0 144 -14 192 -56 l37 -32 5 -293 5 -294 740 4 740 3 68
23 c174 59 310 209 352 387 12 52 15 168 15 655 l0 593 -1072 2 -1073 3 -3
103 -3 103 538 -3 538 -3 3 207 2 208 -1342 2 -1343 3 3 635 4 635 25 52 c13
29 41 66 61 83 72 59 82 60 571 60 l446 0 50 -24 c61 -28 112 -77 136 -131 17
-37 19 -76 19 -482 l0 -443 280 0 280 0 0 423 c0 467 2 489 60 560 18 20 53
49 78 65 l47 27 475 0 c468 0 476 0 515 -22 47 -25 95 -74 121 -123 18 -32 19
-69 22 -482 l3 -448 279 0 280 0 0 580 c0 381 -4 597 -11 632 -41 200 -217
376 -417 417 -37 8 -550 11 -1735 10 -1398 -1 -1692 -3 -1739 -15z m-968
-2219 l0 -215 -660 0 -660 0 0 215 0 215 660 0 660 0 0 -215z m910 -1 l0 -217
-82 5 c-94 5 -144 26 -194 80 -58 61 -68 92 -72 226 l-4 122 176 0 176 0 0
-216z m1520 -317 l0 -113 88 -73 c90 -76 122 -113 122 -144 0 -17 -32 -17
-642 -15 l-643 3 -63 29 c-80 37 -146 108 -167 179 -15 51 -21 227 -8 240 3 4
300 7 660 7 l653 0 0 -113z m416 -482 c47 -19 103 -73 130 -126 50 -99 22
-246 -59 -315 -176 -149 -441 -28 -440 201 0 184 194 311 369 240z"/>
<path d="M2380 1895 l0 -145 340 0 340 0 0 145 0 145 -340 0 -340 0 0 -145z"/>
<path d="M1370 1895 l0 -135 330 0 330 0 0 135 0 135 -330 0 -330 0 0 -135z"/>
<path d="M2380 1315 l0 -145 340 0 340 0 0 145 0 145 -340 0 -340 0 0 -145z"/>
<path d="M1370 1315 l0 -135 330 0 330 0 0 135 0 135 -330 0 -330 0 0 -135z"/>
</g>
</svg>
