<svg width="170" height="170" fill="none" xmlns="http://www.w3.org/2000/svg"><path d="M148.75 0H21.25C9.514 0 0 9.514 0 21.25v127.5C0 160.486 9.514 170 21.25 170h127.5c11.736 0 21.25-9.514 21.25-21.25V21.25C170 9.514 160.486 0 148.75 0Z" fill="#0079BF"/><path d="M137.7 22.1h-31.45c-5.633 0-10.2 4.567-10.2 10.2v53.975c0 5.633 4.567 10.2 10.2 10.2h31.45c5.633 0 10.2-4.567 10.2-10.2V32.3c0-5.633-4.567-10.2-10.2-10.2ZM63.75 22.1H32.3c-5.633 0-10.2 4.567-10.2 10.2v96.475c0 5.633 4.567 10.2 10.2 10.2h31.45c5.633 0 10.2-4.567 10.2-10.2V32.3c0-5.633-4.567-10.2-10.2-10.2Z" fill="#fff"/></svg>