<svg width="170" height="190" fill="none" xmlns="http://www.w3.org/2000/svg"><path d="m170 50.098-45.769-11.133L111.154 0H13.077C5.855 0 0 4.984 0 11.133v167.734C0 185.016 5.855 190 13.077 190h143.846c7.222 0 13.077-4.984 13.077-11.133V50.097Z" fill="#59C36A"/><path d="M169.999 50.098v128.769c0 6.149-5.854 11.133-13.077 11.133H86.046V0h25.107l13.077 38.965 45.769 11.133Z" fill="#00A66C"/><path d="M124.231 78.3H45.769c-3.614 0-6.538 2.49-6.538 5.567v66.797c0 3.077 2.924 5.566 6.538 5.566h78.462c3.614 0 6.538-2.489 6.538-5.566V83.867c0-3.077-2.924-5.566-6.538-5.566ZM52.308 111.7h26.154v11.133H52.308v-11.133Zm39.23 0h26.154v11.133H91.539v-11.133Zm26.154-11.133H91.539V89.433h26.153v11.133Zm-39.23-11.133v11.133H52.308V89.433h26.154Zm-26.154 44.532h26.154v11.133H52.308v-11.133Zm39.23 11.133v-11.133h26.154v11.133H91.539Z" fill="#FFF5F5"/><path d="M124.23 78.3H86.06v77.93h38.17c3.614 0 6.538-2.489 6.538-5.566V83.867c0-3.077-2.924-5.566-6.538-5.566Zm-6.539 66.798H91.537v-11.133h26.154v11.133Zm0-22.266H91.537v-11.133h26.154v11.133Zm0-22.266H91.537V89.433h26.154v11.133Z" fill="#E3E7EA"/><path d="M170 50.098h-45.769c-7.192 0-13.077-5.01-13.077-11.133V0c1.7 0 3.4.557 4.577 1.67l52.307 44.532c1.309 1.001 1.962 2.448 1.962 3.896Z" fill="#A0DEB0"/></svg>