<svg width="125" height="116" fill="none" xmlns="http://www.w3.org/2000/svg"><path d="m87 19.482-13.462-4.329L69.692 0H40.846C38.722 0 37 1.938 37 4.33v65.23c0 2.39 1.722 4.329 3.846 4.329h42.308c2.124 0 3.846-1.938 3.846-4.33V19.483Z" fill="#59C36A"/><path d="M87 19.482V69.56c0 2.39-1.722 4.329-3.846 4.329H62.308V0h7.384l3.847 15.153L87 19.483Z" fill="#00A66C"/><path d="M73.539 30.45H50.462c-1.063 0-1.923.969-1.923 2.165v25.977c0 1.196.86 2.164 1.923 2.164h23.077c1.063 0 1.923-.968 1.923-2.164V32.615c0-1.197-.86-2.165-1.923-2.165ZM52.385 43.438h7.692v4.33h-7.692v-4.33Zm11.538 0h7.692v4.33h-7.692v-4.33Zm7.692-4.329h-7.692v-4.33h7.692v4.33Zm-11.538-4.33v4.33h-7.692v-4.33h7.692Zm-7.692 17.318h7.692v4.33h-7.692v-4.33Zm11.538 4.33v-4.33h7.692v4.33h-7.692Z" fill="#FFF5F5"/><path d="M73.538 30.45H62.312v30.306h11.226c1.063 0 1.924-.968 1.924-2.164V32.615c0-1.197-.86-2.165-1.924-2.165Zm-1.923 25.977h-7.692v-4.33h7.692v4.33Zm0-8.659h-7.692v-4.33h7.692v4.33Zm0-8.659h-7.692v-4.33h7.692v4.33Z" fill="#E3E7EA"/><path d="M87 19.482H73.538c-2.115 0-3.846-1.948-3.846-4.329V0c.5 0 1 .216 1.346.65l15.385 17.317c.385.39.577.953.577 1.515Z" fill="#A0DEB0"/></svg>