<?xml version="1.0" standalone="no"?>
<!DOCTYPE svg PUBLIC "-//W3C//DTD SVG 20010904//EN"
 "http://www.w3.org/TR/2001/REC-SVG-20010904/DTD/svg10.dtd">
<svg version="1.0" xmlns="http://www.w3.org/2000/svg"
 width="140.000000pt" height="140.000000pt" viewBox="0 0 140.000000 140.000000"
 preserveAspectRatio="xMidYMid meet">

<g transform="translate(0.000000,140.000000) scale(0.100000,-0.100000)"
fill="#000000" stroke="none">
<path d="M555 1384 c-40 -7 -111 -34 -165 -60 -79 -39 -110 -62 -181 -133 -71
-71 -94 -102 -133 -181 -50 -102 -76 -208 -76 -310 0 -102 26 -208 76 -310 39
-79 62 -110 133 -181 71 -71 102 -94 181 -133 102 -50 208 -76 310 -76 102 0
208 26 310 76 79 39 110 62 181 133 71 71 94 102 133 181 101 206 101 414 0
620 -39 79 -62 110 -133 181 -71 71 -102 94 -181 133 -148 72 -294 92 -455 60z
m301 -34 c130 -33 217 -82 314 -180 69 -68 94 -102 127 -170 72 -147 91 -307
53 -456 -27 -106 -81 -210 -147 -283 l-54 -60 -27 30 c-21 23 -45 34 -105 49
-114 29 -167 54 -167 80 0 12 -13 34 -28 48 -45 42 -32 52 69 52 89 0 89 0 95
28 3 15 10 43 15 62 10 40 12 114 3 123 -3 3 -29 -10 -56 -29 -56 -38 -79 -45
-48 -14 21 21 19 34 -15 100 -31 60 -48 23 -20 -43 13 -31 13 -36 -1 -41 -12
-5 -14 -10 -5 -20 14 -17 4 -26 -32 -26 -24 0 -27 -2 -17 -14 6 -8 23 -16 37
-18 40 -5 41 -28 2 -28 -34 0 -69 24 -69 47 0 8 -12 13 -30 13 -77 0 -113 35
-140 133 -8 28 -18 47 -27 47 -9 0 -12 -6 -9 -17 3 -10 14 -66 24 -125 14 -78
25 -114 40 -130 11 -13 43 -47 70 -75 50 -54 53 -63 19 -63 -15 0 -18 -5 -15
-25 6 -29 -14 -61 -30 -51 -7 4 -12 22 -12 41 0 31 -2 34 -50 45 -42 10 -50
16 -48 33 7 48 -50 16 -62 -36 -6 -25 -64 -48 -183 -73 -38 -8 -82 -23 -97
-34 l-29 -20 -36 47 c-117 154 -162 372 -115 559 33 130 82 217 180 314 68 69
102 94 170 127 147 72 306 91 456 53z m-258 -997 c28 -7 35 -18 27 -43 -7 -22
-28 -18 -62 13 -28 25 -31 53 -5 42 9 -4 27 -10 40 -12z m222 -11 c0 -11 -11
-24 -25 -30 -21 -10 -26 -9 -35 8 -9 17 -6 21 22 29 18 5 34 10 36 10 1 1 2
-7 2 -17z m-274 -49 c32 -24 72 -33 144 -34 38 0 125 22 138 35 13 13 19 13
43 0 16 -8 70 -25 121 -39 64 -17 99 -32 112 -47 18 -22 18 -23 -14 -50 -45
-37 -144 -84 -221 -105 -88 -24 -263 -23 -343 1 -81 24 -181 76 -245 126 -52
41 -53 43 -35 61 11 10 57 26 109 38 50 11 101 24 115 30 36 14 38 14 76 -16z"/>
<path d="M578 1185 c-15 -8 -29 -24 -33 -35 -4 -12 -15 -20 -29 -20 -29 0 -82
-36 -110 -73 -15 -20 -21 -43 -21 -80 0 -38 -4 -55 -17 -65 -27 -20 -48 -67
-48 -107 0 -27 8 -44 29 -66 16 -16 36 -29 44 -29 17 0 27 -29 27 -78 0 -21
12 -50 31 -78 27 -39 35 -45 61 -42 44 4 60 33 31 53 -26 18 -73 94 -73 118 0
9 -9 25 -20 35 -17 16 -19 23 -9 49 13 40 54 57 113 49 44 -7 45 -6 61 28 26
55 89 81 195 81 47 0 104 -4 127 -9 l42 -8 15 53 c21 70 20 101 -5 133 -16 20
-29 26 -59 26 -30 0 -42 5 -50 21 -18 33 -75 52 -116 39 -27 -9 -38 -9 -56 4
-28 20 -94 20 -130 1z"/>
<path d="M883 876 c-23 -20 -25 -26 -12 -31 8 -3 28 1 44 9 19 10 34 12 46 5
25 -13 37 10 14 28 -28 20 -61 16 -92 -11z"/>
<path d="M704 871 c-39 -24 -50 -39 -36 -53 7 -7 19 -4 38 11 15 12 41 21 60
21 36 0 48 23 18 34 -27 10 -48 7 -80 -13z"/>
<path d="M906 805 c-18 -13 -17 -15 14 -46 31 -32 33 -32 46 -14 20 26 17 52
-5 65 -25 13 -32 12 -55 -5z"/>
<path d="M732 794 c-23 -16 -29 -34 -11 -34 6 0 19 -10 30 -22 19 -23 19 -23
34 -4 21 27 19 53 -4 66 -25 13 -22 13 -49 -6z"/>
<path d="M488 744 c-8 -18 -9 -31 -2 -42 18 -28 34 -25 34 7 0 16 5 33 10 36
6 4 8 11 5 16 -11 17 -35 9 -47 -17z"/>
</g>
</svg>
